<svg xmlns="http://www.w3.org/2000/svg" width="36.995" height="36.995" viewBox="0 0 36.995 36.995"><path id="Vector" d="M18.5,0A18.5,18.5,0,1,0,37,18.5,18.528,18.528,0,0,0,18.5,0Zm6.215,22.752a1.4,1.4,0,0,1,0,1.961,1.384,1.384,0,0,1-1.961,0L18.5,20.458l-4.254,4.254a1.384,1.384,0,0,1-1.961,0,1.4,1.4,0,0,1,0-1.961L16.537,18.5l-4.254-4.254a1.386,1.386,0,0,1,1.961-1.961L18.5,16.537l4.254-4.254a1.386,1.386,0,0,1,1.961,1.961L20.458,18.5Z" fill="#ce1a2f"></path><path id="Vector-2" data-name="Vector" d="M0,0H44.394V44.394H0Z" transform="translate(44.394 44.394) rotate(180)" fill="none" opacity="0"></path></svg>