<svg xmlns="http://www.w3.org/2000/svg" id="vuesax_bold_crown" data-name="vuesax/bold/crown" width="39.834" height="39.834" viewBox="0 0 39.834 39.834"><g id="crown" transform="translate(0 0)"><path id="Vector" d="M17.842,2.49H1.245A1.254,1.254,0,0,1,0,1.245,1.254,1.254,0,0,1,1.245,0h16.6a1.254,1.254,0,0,1,1.245,1.245A1.254,1.254,0,0,1,17.842,2.49Z" transform="translate(10.373 34.025)" fill="#292d32"></path><path id="Vector-2" data-name="Vector" d="M30.343,5.465,23.7,10.212a1.671,1.671,0,0,1-2.523-.763L18.045,1.083a1.653,1.653,0,0,0-3.1,0L11.787,9.432a1.636,1.636,0,0,1-2.506.763L2.642,5.448A1.673,1.673,0,0,0,.1,7.373l6.9,19.336a1.647,1.647,0,0,0,1.56,1.1H24.385a1.67,1.67,0,0,0,1.56-1.1l6.9-19.336A1.646,1.646,0,0,0,30.343,5.465Zm-9.71,15.319h-8.3a1.245,1.245,0,1,1,0-2.49h8.3a1.245,1.245,0,0,1,0,2.49Z" transform="translate(3.433 3.697)" fill="#292d32"></path><path id="Vector-3" data-name="Vector" d="M0,0H39.834V39.834H0Z" transform="translate(39.834 39.834) rotate(180)" fill="none" opacity="0"></path></g></svg>