<svg xmlns="http://www.w3.org/2000/svg" id="vuesax_bold_messages" data-name="vuesax/bold/messages" width="39.834" height="39.834" viewBox="0 0 39.834 39.834"><g id="messages" transform="translate(0 0)"><path id="Vector" d="M0,0H39.834V39.834H0Z" fill="none" opacity="0"></path><path id="Vector-2" data-name="Vector" d="M18.573,0H7.95A10.066,10.066,0,0,0,6.705.066C2.241.448,0,3.087,0,7.95v6.639c0,6.639,2.656,7.95,7.95,7.95h.664a1.533,1.533,0,0,1,1.062.531l1.992,2.656a1.878,1.878,0,0,0,3.187,0l1.992-2.656a1.336,1.336,0,0,1,1.062-.531h.664c4.863,0,7.5-2.224,7.884-6.705a10.066,10.066,0,0,0,.066-1.245V7.95Q26.523.008,18.573,0ZM7.469,13.278a1.66,1.66,0,1,1,1.66-1.66A1.654,1.654,0,0,1,7.469,13.278Zm5.793,0a1.66,1.66,0,1,1,1.66-1.66A1.654,1.654,0,0,1,13.261,13.278Zm5.809,0a1.66,1.66,0,1,1,1.66-1.66A1.654,1.654,0,0,1,19.071,13.278Z" transform="translate(3.319 9.958)" fill="#292d32"></path><path id="Vector-3" data-name="Vector" d="M25.479,7.95v6.639c0,3.319-1.029,5.577-3.087,6.822a.726.726,0,0,1-1.079-.68l.017-6.141c0-6.639-3.8-10.44-10.44-10.44L.782,4.166A.726.726,0,0,1,.1,3.087C1.347,1.029,3.6,0,6.907,0H17.529Q25.471,0,25.479,7.95Z" transform="translate(11.002 3.319)" fill="#292d32"></path></g></svg>