<svg xmlns="http://www.w3.org/2000/svg" id="vuesax_bold_microphone-2" data-name="vuesax/bold/microphone-2" width="39.834" height="39.834" viewBox="0 0 39.834 39.834"><g id="microphone-2" transform="translate(0 0)"><path id="Vector" d="M24.8.017a1.155,1.155,0,0,0-1.162,1.162V3.8a10.656,10.656,0,1,1-21.311,0V1.162A1.155,1.155,0,0,0,1.162,0,1.155,1.155,0,0,0,0,1.162V3.784A12.99,12.99,0,0,0,11.817,16.7v3.535a1.162,1.162,0,1,0,2.324,0V16.7A12.991,12.991,0,0,0,25.958,3.784V1.162A1.173,1.173,0,0,0,24.8.017Z" transform="translate(6.938 15.12)" fill="#292d32"></path><path id="Vector-2" data-name="Vector" d="M7.336,0A7.338,7.338,0,0,0,0,7.336v8.5a7.336,7.336,0,0,0,14.672,0v-8.5A7.338,7.338,0,0,0,7.336,0ZM9.51,11.535a.957.957,0,0,1-.929.714,1.281,1.281,0,0,1-.249-.033,3.63,3.63,0,0,0-1.975,0,.962.962,0,1,1-.5-1.859,5.7,5.7,0,0,1,2.988,0A.966.966,0,0,1,9.51,11.535Zm.88-3.22a.962.962,0,0,1-.913.631,1.15,1.15,0,0,1-.332-.05,5.218,5.218,0,0,0-3.618,0,.979.979,0,0,1-1.245-.581.955.955,0,0,1,.581-1.228,7.237,7.237,0,0,1,4.946,0A.961.961,0,0,1,10.39,8.315Z" transform="translate(12.581 3.319)" fill="#292d32"></path><path id="Vector-3" data-name="Vector" d="M0,0H39.834V39.834H0Z" fill="none" opacity="0"></path></g></svg>