<svg xmlns="http://www.w3.org/2000/svg" width="34.32" height="34.32" viewBox="0 0 34.32 34.32"><g id="vuesax_bold_calendar-2" data-name="vuesax/bold/calendar-2" transform="translate(-172 -252)"><g id="calendar-2" transform="translate(172 252)"><path id="Vector" d="M0,0H34.32V34.32H0Z" fill="none" opacity="0"></path><path id="Vector-2" data-name="Vector" d="M19.607,3.3V1.073a1.073,1.073,0,0,0-2.145,0V3.218h-9.3V1.073a1.073,1.073,0,1,0-2.145,0V3.3C2.161,3.661.288,5.963,0,9.381a.718.718,0,0,0,.715.758h24.2a.709.709,0,0,0,.715-.758C25.341,5.963,23.468,3.661,19.607,3.3Z" transform="translate(4.346 1.788)" fill="#292d32"></path><path id="Vector-3" data-name="Vector" d="M24.31,0H1.43A1.434,1.434,0,0,0,0,1.43v8.809c0,4.29,2.145,7.15,7.15,7.15H18.59c5.005,0,7.15-2.86,7.15-7.15V1.43A1.434,1.434,0,0,0,24.31,0ZM8.88,11.969a1.651,1.651,0,0,1-.472.3,1.348,1.348,0,0,1-1.087,0,1.651,1.651,0,0,1-.472-.3,1.45,1.45,0,0,1,0-2.031,1.651,1.651,0,0,1,.472-.3,1.43,1.43,0,0,1,1.087,0,1.651,1.651,0,0,1,.472.3,1.45,1.45,0,0,1,0,2.031Zm.3-5.477a1.651,1.651,0,0,1-.3.472,1.651,1.651,0,0,1-.472.3,1.348,1.348,0,0,1-1.087,0,1.651,1.651,0,0,1-.472-.3,1.651,1.651,0,0,1-.3-.472,1.348,1.348,0,0,1,0-1.087,1.651,1.651,0,0,1,.3-.472,1.651,1.651,0,0,1,.472-.3,1.43,1.43,0,0,1,1.087,0,1.651,1.651,0,0,1,.472.3,1.651,1.651,0,0,1,.3.472,1.348,1.348,0,0,1,0,1.087Zm4.7.472a1.651,1.651,0,0,1-.472.3,1.348,1.348,0,0,1-1.087,0,1.651,1.651,0,0,1-.472-.3,1.45,1.45,0,0,1,0-2.031,1.651,1.651,0,0,1,.472-.3,1.31,1.31,0,0,1,1.087,0,1.651,1.651,0,0,1,.472.3,1.45,1.45,0,0,1,0,2.031Z" transform="translate(4.29 14.071)" fill="#292d32"></path></g></g></svg>