<svg xmlns="http://www.w3.org/2000/svg" id="vuesax_bold_moneys" data-name="vuesax/bold/moneys" width="39.834" height="39.834" viewBox="0 0 39.834 39.834"><g id="moneys"><path id="Vector" d="M0,0H39.834V39.834H0Z" fill="none" opacity="0"></path><path id="Vector-2" data-name="Vector" d="M28.979,5.178C28.266,1.577,25.593,0,21.875,0H7.3C2.921,0,0,2.191,0,7.3v8.548c0,3.685,1.51,5.842,4,6.772a6.454,6.454,0,0,0,1.178.315,9.705,9.705,0,0,0,2.124.216H21.892c4.382,0,7.3-2.191,7.3-7.3V7.3A9.4,9.4,0,0,0,28.979,5.178ZM6.34,14.075a1.245,1.245,0,0,1-2.49,0V9.1a1.245,1.245,0,0,1,2.49,0Zm8.249,1.892a4.382,4.382,0,1,1,4.382-4.382A4.378,4.378,0,0,1,14.589,15.967Zm10.722-1.892a1.245,1.245,0,1,1-2.49,0V9.1a1.245,1.245,0,1,1,2.49,0Z" transform="translate(2.838 5.842)" fill="#242424"></path><path id="Vector-3" data-name="Vector" d="M27.355,5.46v8.548c0,5.112-2.921,7.319-7.319,7.319H5.463a9.343,9.343,0,0,1-3.319-.548A5.6,5.6,0,0,1,.135,19.551a.428.428,0,0,1,.349-.73H15.056c6.141,0,9.793-3.651,9.793-9.776V.48a.431.431,0,0,1,.73-.349A7.457,7.457,0,0,1,27.355,5.46Z" transform="translate(9.657 12.665)" fill="#242424"></path></g></svg>